<svg xmlns="http://www.w3.org/2000/svg" viewBox="0 0 1440 320"><path fill="#0099ff" fill-opacity="1" d="M0,128L30,128C60,128,120,128,180,160C240,192,300,256,360,261.3C420,267,480,213,540,165.3C600,117,660,75,720,58.7C780,43,840,53,900,64C960,75,1020,85,1080,80C1140,75,1200,53,1260,58.7C1320,64,1380,96,1410,112L1440,128L1440,0L1410,0C1380,0,1320,0,1260,0C1200,0,1140,0,1080,0C1020,0,960,0,900,0C840,0,780,0,720,0C660,0,600,0,540,0C480,0,420,0,360,0C300,0,240,0,180,0C120,0,60,0,30,0L0,0Z"></path></svg>